<?xml version="1.0" standalone="no"?>
<!DOCTYPE svg PUBLIC "-//W3C//DTD SVG 20010904//EN"
 "http://www.w3.org/TR/2001/REC-SVG-20010904/DTD/svg10.dtd">
<svg version="1.0" xmlns="http://www.w3.org/2000/svg"
 width="128.000000pt" height="128.000000pt" viewBox="0 0 128.000000 128.000000"
 preserveAspectRatio="xMidYMid meet">
<metadata>
Created by potrace 1.11, written by Peter Selinger 2001-2013
</metadata>
<g transform="translate(0.000000,128.000000) scale(0.100000,-0.100000)"
fill="#000000" stroke="none">
<path d="M944 1220 c-65 -41 -123 -101 -125 -128 -6 -74 -4 -104 7 -149 16
-60 13 -82 -23 -180 -9 -24 -20 -40 -26 -36 -6 4 -8 0 -4 -11 10 -26 -56 -127
-165 -251 -75 -85 -114 -134 -141 -178 -32 -52 -53 -52 -38 0 9 31 7 154 -2
170 -3 4 -8 25 -11 46 -11 72 -96 162 -186 198 -19 7 -60 25 -90 40 -30 15
-56 25 -58 24 -2 -2 -3 -43 -4 -92 0 -96 16 -152 68 -235 31 -49 146 -133 219
-159 21 -8 44 -24 53 -37 13 -20 12 -27 -8 -73 -12 -29 -24 -76 -27 -106 -5
-49 -4 -55 12 -52 12 3 20 15 22 34 6 48 47 157 61 162 7 3 23 -5 35 -19 65
-70 199 -131 285 -130 52 1 153 32 182 56 8 7 22 16 30 20 8 3 39 22 69 40
l53 34 -38 25 c-164 103 -312 132 -417 82 -30 -14 -57 -25 -61 -25 -4 0 -32
-16 -62 -35 -52 -34 -74 -42 -74 -29 0 12 44 84 51 84 4 0 10 8 13 18 3 9 27
41 53 70 53 59 83 68 138 40 68 -34 201 -46 261 -23 48 18 90 62 101 103 5 21
0 31 -30 57 -94 81 -248 48 -338 -72 -21 -27 -64 -51 -75 -41 -2 2 16 28 40
58 79 100 156 271 156 345 0 13 24 41 60 73 53 47 62 61 80 120 20 69 32 173
21 191 -4 6 -32 -6 -67 -29z"/>
<path d="M590 1083 c-2 -16 -4 -60 -4 -99 0 -59 5 -79 28 -118 15 -25 30 -46
35 -46 4 0 21 -11 37 -25 34 -29 82 -50 92 -41 3 4 6 40 6 81 -1 78 -22 134
-67 179 -24 24 -113 96 -119 96 -2 0 -5 -12 -8 -27z"/>
<path d="M406 968 c-26 -77 -26 -167 0 -253 11 -40 28 -64 81 -115 36 -36 80
-78 96 -95 17 -16 28 -25 24 -18 -4 6 -3 23 3 37 20 54 30 192 15 216 -3 6 -8
18 -10 28 -3 20 -43 82 -66 104 -22 20 -113 94 -127 102 -7 4 -14 2 -16 -6z"/>
<path d="M1199 956 c-2 -2 -31 -6 -64 -7 -115 -5 -190 -41 -234 -110 -18 -30
-43 -67 -54 -84 -11 -16 -14 -25 -7 -18 9 9 19 9 33 2 26 -14 155 -19 190 -6
15 5 41 23 58 40 35 35 102 168 90 180 -4 4 -9 5 -12 3z"/>
</g>
</svg>
